<svg xmlns="http://www.w3.org/2000/svg" viewBox="0 60 600 480"><g fill="#1d1d1f"><circle cx="339.81" cy="311.62" r="0.83"/><circle cx="333.9" cy="317.39" r="0.76"/><circle cx="256.78" cy="305.11" r="0.77"/><circle cx="256.09" cy="298.28" r="0.84"/><circle cx="258.16" cy="291.57" r="0.85"/><circle cx="262.85" cy="285.38" r="0.8"/><circle cx="269.89" cy="280.11" r="0.71"/><circle cx="341.85" cy="291.57" r="0.73"/><circle cx="343.91" cy="298.29" r="0.81"/><circle cx="343.22" cy="305.12" r="0.85"/><circle cx="348.19" cy="323.19" r="0.8"/><circle cx="260.48" cy="328.81" r="0.71"/><circle cx="252.81" cy="323.97" r="0.83"/><circle cx="246.67" cy="318.36" r="0.94"/><circle cx="242.24" cy="312.16" r="1.02"/><circle cx="239.67" cy="305.57" r="1.07"/><circle cx="239.03" cy="298.8" r="1.07"/><circle cx="240.36" cy="292.07" r="1.03"/><circle cx="243.6" cy="285.6" r="0.96"/><circle cx="248.65" cy="279.58" r="0.85"/><circle cx="255.36" cy="274.23" r="0.73"/><circle cx="343.53" cy="273.51" r="0.77"/><circle cx="350.46" cy="278.75" r="0.89"/><circle cx="355.77" cy="284.68" r="0.98"/><circle cx="359.29" cy="291.1" r="1.05"/><circle cx="360.9" cy="297.8" r="1.07"/><circle cx="360.55" cy="304.58" r="1.06"/><circle cx="358.26" cy="311.21" r="1"/><circle cx="354.09" cy="317.48" r="0.91"/><circle cx="267.75" cy="344.03" r="0.81"/><circle cx="258.18" cy="340.82" r="0.94"/><circle cx="249.43" cy="336.82" r="1.05"/><circle cx="241.65" cy="332.09" r="1.16"/><circle cx="235.02" cy="326.75" r="1.24"/><circle cx="229.65" cy="320.88" r="1.28"/><circle cx="225.64" cy="314.61" r="1.3"/><circle cx="223.09" cy="308.05" r="1.28"/><circle cx="222.03" cy="301.33" r="1.23"/><circle cx="222.49" cy="294.59" r="1.15"/><circle cx="224.46" cy="287.96" r="1.04"/><circle cx="227.9" cy="281.56" r="0.92"/><circle cx="232.74" cy="275.51" r="0.8"/><circle cx="327.21" cy="254.68" r="0.75"/><circle cx="337.12" cy="257.47" r="0.87"/><circle cx="346.31" cy="261.09" r="1"/><circle cx="354.59" cy="265.46" r="1.11"/><circle cx="361.82" cy="270.51" r="1.2"/><circle cx="367.83" cy="276.13" r="1.26"/><circle cx="372.53" cy="282.21" r="1.3"/><circle cx="375.82" cy="288.65" r="1.29"/><circle cx="377.63" cy="295.3" r="1.26"/><circle cx="377.93" cy="302.04" r="1.19"/><circle cx="376.71" cy="308.75" r="1.1"/><circle cx="374" cy="315.28" r="0.98"/><circle cx="369.85" cy="321.52" r="0.86"/><circle cx="364.34" cy="327.34" r="0.73"/><circle cx="300.51" cy="358.9" r="0.74"/><circle cx="289.48" cy="358.54" r="0.87"/><circle cx="278.59" cy="357.38" r="1"/><circle cx="267.99" cy="355.46" r="1.13"/><circle cx="257.82" cy="352.78" r="1.25"/><circle cx="248.22" cy="349.38" r="1.35"/><circle cx="239.33" cy="345.32" r="1.43"/><circle cx="231.25" cy="340.65" r="1.49"/><circle cx="224.1" cy="335.43" r="1.52"/><circle cx="217.98" cy="329.72" r="1.52"/><circle cx="212.97" cy="323.62" r="1.49"/><circle cx="209.14" cy="317.2" r="1.43"/><circle cx="206.53" cy="310.54" r="1.35"/><circle cx="205.19" cy="303.74" r="1.24"/><circle cx="205.13" cy="296.89" r="1.12"/><circle cx="206.36" cy="290.08" r="0.99"/><circle cx="208.85" cy="283.41" r="0.86"/><circle cx="212.57" cy="276.96" r="0.74"/><circle cx="299.49" cy="241.1" r="0.74"/><circle cx="310.52" cy="241.46" r="0.87"/><circle cx="321.41" cy="242.62" r="1"/><circle cx="332.01" cy="244.54" r="1.13"/><circle cx="342.18" cy="247.22" r="1.25"/><circle cx="351.78" cy="250.62" r="1.35"/><circle cx="360.67" cy="254.68" r="1.43"/><circle cx="368.75" cy="259.35" r="1.49"/><circle cx="375.9" cy="264.57" r="1.52"/><circle cx="382.02" cy="270.28" r="1.52"/><circle cx="387.03" cy="276.38" r="1.49"/><circle cx="390.86" cy="282.8" r="1.43"/><circle cx="393.47" cy="289.46" r="1.35"/><circle cx="394.81" cy="296.26" r="1.24"/><circle cx="394.87" cy="303.11" r="1.12"/><circle cx="393.64" cy="309.92" r="0.99"/><circle cx="391.15" cy="316.59" r="0.86"/><circle cx="387.43" cy="323.04" r="0.74"/><circle cx="327.8" cy="367.27" r="0.85"/><circle cx="317.03" cy="368.63" r="0.98"/><circle cx="306.1" cy="369.34" r="1.11"/><circle cx="295.1" cy="369.37" r="1.24"/><circle cx="284.16" cy="368.74" r="1.36"/><circle cx="273.37" cy="367.45" r="1.48"/><circle cx="262.83" cy="365.51" r="1.58"/><circle cx="252.66" cy="362.93" r="1.65"/><circle cx="242.94" cy="359.75" r="1.71"/><circle cx="233.76" cy="356" r="1.74"/><circle cx="225.23" cy="351.7" r="1.75"/><circle cx="217.42" cy="346.91" r="1.73"/><circle cx="210.4" cy="341.66" r="1.69"/><circle cx="204.24" cy="336.02" r="1.62"/><circle cx="199.01" cy="330.03" r="1.53"/><circle cx="194.75" cy="323.74" r="1.42"/><circle cx="191.5" cy="317.23" r="1.3"/><circle cx="189.3" cy="310.56" r="1.17"/><circle cx="188.17" cy="303.78" r="1.04"/><circle cx="188.11" cy="296.96" r="0.91"/><circle cx="189.13" cy="290.18" r="0.79"/><circle cx="261.7" cy="234.75" r="0.73"/><circle cx="272.2" cy="232.73" r="0.85"/><circle cx="282.97" cy="231.37" r="0.98"/><circle cx="293.9" cy="230.66" r="1.11"/><circle cx="304.9" cy="230.63" r="1.24"/><circle cx="315.84" cy="231.26" r="1.36"/><circle cx="326.63" cy="232.55" r="1.48"/><circle cx="337.17" cy="234.49" r="1.58"/><circle cx="347.34" cy="237.07" r="1.65"/><circle cx="357.06" cy="240.25" r="1.71"/><circle cx="366.24" cy="244" r="1.74"/><circle cx="374.77" cy="248.3" r="1.75"/><circle cx="382.58" cy="253.09" r="1.73"/><circle cx="389.6" cy="258.34" r="1.69"/><circle cx="395.76" cy="263.98" r="1.62"/><circle cx="400.99" cy="269.97" r="1.53"/><circle cx="405.25" cy="276.26" r="1.42"/><circle cx="408.5" cy="282.77" r="1.3"/><circle cx="410.7" cy="289.44" r="1.17"/><circle cx="411.83" cy="296.22" r="1.04"/><circle cx="411.89" cy="303.04" r="0.91"/><circle cx="410.87" cy="309.82" r="0.79"/><circle cx="338.3" cy="365.25" r="0.73"/><circle cx="303.97" cy="379.94" r="1.66"/><circle cx="293.02" cy="379.86" r="1.76"/><circle cx="282.12" cy="379.21" r="1.84"/><circle cx="271.35" cy="377.98" r="1.91"/><circle cx="260.79" cy="376.2" r="1.95"/><circle cx="250.51" cy="373.86" r="1.97"/><circle cx="240.58" cy="370.99" r="1.97"/><circle cx="231.09" cy="367.61" r="1.95"/><circle cx="222.09" cy="363.74" r="1.9"/><circle cx="213.65" cy="359.42" r="1.84"/><circle cx="205.83" cy="354.66" r="1.75"/><circle cx="198.7" cy="349.52" r="1.65"/><circle cx="192.29" cy="344.01" r="1.53"/><circle cx="186.66" cy="338.19" r="1.41"/><circle cx="181.84" cy="332.09" r="1.28"/><circle cx="177.88" cy="325.76" r="1.15"/><circle cx="174.79" cy="319.25" r="1.01"/><circle cx="172.61" cy="312.6" r="0.89"/><circle cx="171.35" cy="305.85" r="0.77"/><circle cx="224.51" cy="235.15" r="0.78"/><circle cx="233.65" cy="231.41" r="0.9"/><circle cx="243.27" cy="228.17" r="1.03"/><circle cx="253.3" cy="225.44" r="1.16"/><circle cx="263.67" cy="223.26" r="1.3"/><circle cx="274.29" cy="221.62" r="1.43"/><circle cx="285.11" cy="220.55" r="1.55"/><circle cx="296.03" cy="220.06" r="1.66"/><circle cx="306.98" cy="220.14" r="1.76"/><circle cx="317.88" cy="220.79" r="1.84"/><circle cx="328.65" cy="222.02" r="1.91"/><circle cx="339.21" cy="223.8" r="1.95"/><circle cx="349.49" cy="226.14" r="1.97"/><circle cx="359.42" cy="229.01" r="1.97"/><circle cx="368.91" cy="232.39" r="1.95"/><circle cx="377.91" cy="236.26" r="1.9"/><circle cx="386.35" cy="240.58" r="1.84"/><circle cx="394.17" cy="245.34" r="1.75"/><circle cx="401.3" cy="250.48" r="1.65"/><circle cx="407.71" cy="255.99" r="1.53"/><circle cx="413.34" cy="261.81" r="1.41"/><circle cx="418.16" cy="267.91" r="1.28"/><circle cx="422.12" cy="274.24" r="1.15"/><circle cx="425.21" cy="280.75" r="1.01"/><circle cx="427.39" cy="287.4" r="0.89"/><circle cx="428.65" cy="294.15" r="0.77"/><circle cx="375.49" cy="364.85" r="0.78"/><circle cx="366.35" cy="368.59" r="0.9"/><circle cx="356.73" cy="371.83" r="1.03"/><circle cx="346.7" cy="374.56" r="1.16"/><circle cx="336.33" cy="376.74" r="1.3"/><circle cx="325.71" cy="378.38" r="1.43"/><circle cx="314.89" cy="379.45" r="1.55"/><circle cx="272.54" cy="388.9" r="2.2"/><circle cx="261.77" cy="387.36" r="2.18"/><circle cx="251.23" cy="385.32" r="2.14"/><circle cx="240.96" cy="382.79" r="2.08"/><circle cx="231.03" cy="379.78" r="2"/><circle cx="221.5" cy="376.32" r="1.91"/><circle cx="212.41" cy="372.42" r="1.81"/><circle cx="203.83" cy="368.11" r="1.69"/><circle cx="195.8" cy="363.4" r="1.56"/><circle cx="188.36" cy="358.33" r="1.43"/><circle cx="181.56" cy="352.93" r="1.29"/><circle cx="175.45" cy="347.23" r="1.16"/><circle cx="170.04" cy="341.25" r="1.02"/><circle cx="165.38" cy="335.04" r="0.9"/><circle cx="161.49" cy="328.63" r="0.78"/><circle cx="178.41" cy="249.89" r="0.71"/><circle cx="184.87" cy="244.33" r="0.82"/><circle cx="191.99" cy="239.09" r="0.94"/><circle cx="199.73" cy="234.2" r="1.07"/><circle cx="208.04" cy="229.69" r="1.21"/><circle cx="216.88" cy="225.58" r="1.34"/><circle cx="226.2" cy="221.9" r="1.48"/><circle cx="235.94" cy="218.66" r="1.61"/><circle cx="246.04" cy="215.89" r="1.73"/><circle cx="256.46" cy="213.6" r="1.85"/><circle cx="267.12" cy="211.81" r="1.95"/><circle cx="277.97" cy="210.52" r="2.03"/><circle cx="288.95" cy="209.74" r="2.1"/><circle cx="299.99" cy="209.48" r="2.16"/><circle cx="311.03" cy="209.74" r="2.19"/><circle cx="322.01" cy="210.51" r="2.2"/><circle cx="332.87" cy="211.8" r="2.19"/><circle cx="343.53" cy="213.6" r="2.16"/><circle cx="353.95" cy="215.89" r="2.11"/><circle cx="364.05" cy="218.66" r="2.04"/><circle cx="373.79" cy="221.89" r="1.96"/><circle cx="383.11" cy="225.58" r="1.86"/><circle cx="391.95" cy="229.69" r="1.75"/><circle cx="400.26" cy="234.2" r="1.62"/><circle cx="408" cy="239.09" r="1.49"/><circle cx="415.12" cy="244.33" r="1.36"/><circle cx="421.58" cy="249.88" r="1.22"/><circle cx="427.35" cy="255.73" r="1.09"/><circle cx="432.38" cy="261.83" r="0.96"/><circle cx="436.66" cy="268.14" r="0.84"/><circle cx="440.15" cy="274.64" r="0.73"/><circle cx="418.44" cy="352.93" r="0.77"/><circle cx="411.65" cy="358.33" r="0.88"/><circle cx="404.21" cy="363.4" r="1.01"/><circle cx="396.18" cy="368.1" r="1.14"/><circle cx="387.6" cy="372.42" r="1.27"/><circle cx="378.52" cy="376.32" r="1.41"/><circle cx="368.98" cy="379.78" r="1.54"/><circle cx="359.05" cy="382.78" r="1.67"/><circle cx="348.79" cy="385.32" r="1.79"/><circle cx="338.24" cy="387.36" r="1.9"/><circle cx="327.47" cy="388.9" r="1.99"/><circle cx="316.55" cy="389.94" r="2.07"/><circle cx="305.53" cy="390.45" r="2.13"/><circle cx="294.48" cy="390.46" r="2.17"/><circle cx="283.46" cy="389.94" r="2.2"/><circle cx="235.15" cy="392.72" r="1.91"/><circle cx="225.2" cy="389.79" r="1.79"/><circle cx="215.59" cy="386.45" r="1.66"/><circle cx="206.37" cy="382.72" r="1.52"/><circle cx="197.58" cy="378.62" r="1.39"/><circle cx="189.25" cy="374.15" r="1.25"/><circle cx="181.43" cy="369.35" r="1.12"/><circle cx="174.15" cy="364.22" r="0.99"/><circle cx="167.44" cy="358.81" r="0.87"/><circle cx="161.34" cy="353.13" r="0.76"/><circle cx="145.52" cy="267.75" r="0.77"/><circle cx="149.38" cy="261.36" r="0.88"/><circle cx="153.93" cy="255.15" r="1.01"/><circle cx="159.15" cy="249.13" r="1.13"/><circle cx="165.01" cy="243.36" r="1.27"/><circle cx="171.49" cy="237.83" r="1.4"/><circle cx="178.55" cy="232.6" r="1.54"/><circle cx="186.17" cy="227.67" r="1.67"/><circle cx="194.3" cy="223.07" r="1.8"/><circle cx="202.92" cy="218.82" r="1.93"/><circle cx="211.98" cy="214.94" r="2.04"/><circle cx="221.44" cy="211.45" r="2.14"/><circle cx="231.26" cy="208.36" r="2.23"/><circle cx="241.4" cy="205.7" r="2.3"/><circle cx="251.8" cy="203.46" r="2.36"/><circle cx="262.42" cy="201.66" r="2.4"/><circle cx="273.22" cy="200.31" r="2.42"/><circle cx="284.13" cy="199.42" r="2.42"/><circle cx="295.12" cy="198.99" r="2.41"/><circle cx="306.13" cy="199.01" r="2.38"/><circle cx="317.11" cy="199.5" r="2.33"/><circle cx="328.02" cy="200.44" r="2.26"/><circle cx="338.79" cy="201.84" r="2.17"/><circle cx="349.39" cy="203.69" r="2.08"/><circle cx="359.77" cy="205.98" r="1.97"/><circle cx="369.87" cy="208.69" r="1.85"/><circle cx="379.65" cy="211.83" r="1.72"/><circle cx="389.07" cy="215.36" r="1.59"/><circle cx="398.08" cy="219.28" r="1.45"/><circle cx="406.65" cy="223.57" r="1.32"/><circle cx="414.73" cy="228.21" r="1.18"/><circle cx="422.28" cy="233.18" r="1.05"/><circle cx="429.28" cy="238.45" r="0.93"/><circle cx="435.69" cy="244" r="0.81"/><circle cx="441.47" cy="249.81" r="0.71"/><circle cx="456.15" cy="328.99" r="0.72"/><circle cx="452.64" cy="335.46" r="0.83"/><circle cx="448.43" cy="341.77" r="0.94"/><circle cx="443.54" cy="347.89" r="1.07"/><circle cx="438" cy="353.79" r="1.2"/><circle cx="431.83" cy="359.44" r="1.34"/><circle cx="425.05" cy="364.82" r="1.47"/><circle cx="417.71" cy="369.91" r="1.61"/><circle cx="409.83" cy="374.67" r="1.74"/><circle cx="401.45" cy="379.1" r="1.87"/><circle cx="392.6" cy="383.17" r="1.98"/><circle cx="383.34" cy="386.85" r="2.09"/><circle cx="373.69" cy="390.14" r="2.19"/><circle cx="363.7" cy="393.02" r="2.27"/><circle cx="353.43" cy="395.48" r="2.33"/><circle cx="342.91" cy="397.49" r="2.38"/><circle cx="332.2" cy="399.07" r="2.41"/><circle cx="321.34" cy="400.19" r="2.42"/><circle cx="310.38" cy="400.85" r="2.42"/><circle cx="299.37" cy="401.06" r="2.39"/><circle cx="288.37" cy="400.8" r="2.35"/><circle cx="277.42" cy="400.09" r="2.29"/><circle cx="266.58" cy="398.91" r="2.22"/><circle cx="255.88" cy="397.29" r="2.13"/><circle cx="245.39" cy="395.22" r="2.03"/><circle cx="194.07" cy="390.23" r="1.01"/><circle cx="185.39" cy="386.06" r="0.89"/><circle cx="177.15" cy="381.56" r="0.78"/><circle cx="120.11" cy="296.16" r="0.79"/><circle cx="120.82" cy="289.37" r="0.9"/><circle cx="122.2" cy="282.61" r="1.02"/><circle cx="124.24" cy="275.92" r="1.14"/><circle cx="126.93" cy="269.33" r="1.27"/><circle cx="130.27" cy="262.84" r="1.41"/><circle cx="134.24" cy="256.49" r="1.54"/><circle cx="138.83" cy="250.31" r="1.68"/><circle cx="144.01" cy="244.31" r="1.82"/><circle cx="149.78" cy="238.52" r="1.95"/><circle cx="156.1" cy="232.95" r="2.07"/><circle cx="162.96" cy="227.64" r="2.19"/><circle cx="170.33" cy="222.6" r="2.29"/><circle cx="178.19" cy="217.84" r="2.39"/><circle cx="186.49" cy="213.39" r="2.47"/><circle cx="195.22" cy="209.26" r="2.54"/><circle cx="204.34" cy="205.47" r="2.59"/><circle cx="213.81" cy="202.03" r="2.63"/><circle cx="223.6" cy="198.95" r="2.65"/><circle cx="233.68" cy="196.25" r="2.65"/><circle cx="244.01" cy="193.94" r="2.64"/><circle cx="254.54" cy="192.02" r="2.61"/><circle cx="265.24" cy="190.5" r="2.56"/><circle cx="276.07" cy="189.39" r="2.5"/><circle cx="286.99" cy="188.69" r="2.43"/><circle cx="297.96" cy="188.41" r="2.34"/><circle cx="308.94" cy="188.54" r="2.24"/><circle cx="319.88" cy="189.08" r="2.12"/><circle cx="330.75" cy="190.04" r="2"/><circle cx="341.51" cy="191.41" r="1.88"/><circle cx="352.11" cy="193.18" r="1.74"/><circle cx="362.51" cy="195.35" r="1.61"/><circle cx="372.69" cy="197.9" r="1.47"/><circle cx="382.59" cy="200.84" r="1.33"/><circle cx="392.19" cy="204.15" r="1.2"/><circle cx="401.44" cy="207.81" r="1.07"/><circle cx="410.32" cy="211.82" r="0.95"/><circle cx="418.78" cy="216.15" r="0.84"/><circle cx="426.81" cy="220.8" r="0.73"/><circle cx="480" cy="300.44" r="0.74"/><circle cx="479.62" cy="307.24" r="0.84"/><circle cx="478.57" cy="314.02" r="0.96"/><circle cx="476.86" cy="320.74" r="1.08"/><circle cx="474.5" cy="327.39" r="1.21"/><circle cx="471.48" cy="333.93" r="1.34"/><circle cx="467.82" cy="340.35" r="1.48"/><circle cx="463.54" cy="346.62" r="1.61"/><circle cx="458.65" cy="352.71" r="1.75"/><circle cx="453.18" cy="358.61" r="1.88"/><circle cx="447.13" cy="364.29" r="2.01"/><circle cx="440.53" cy="369.73" r="2.13"/><circle cx="433.41" cy="374.92" r="2.24"/><circle cx="425.8" cy="379.82" r="2.34"/><circle cx="417.72" cy="384.43" r="2.43"/><circle cx="409.2" cy="388.72" r="2.5"/><circle cx="400.27" cy="392.68" r="2.56"/><circle cx="390.97" cy="396.3" r="2.61"/><circle cx="381.33" cy="399.56" r="2.64"/><circle cx="371.39" cy="402.45" r="2.65"/><circle cx="361.18" cy="404.95" r="2.65"/><circle cx="350.75" cy="407.07" r="2.62"/><circle cx="340.13" cy="408.79" r="2.59"/><circle cx="329.36" cy="410.11" r="2.53"/><circle cx="318.47" cy="411.01" r="2.46"/><circle cx="307.52" cy="411.5" r="2.38"/><circle cx="296.55" cy="411.58" r="2.29"/><circle cx="285.58" cy="411.24" r="2.18"/><circle cx="274.67" cy="410.49" r="2.07"/><circle cx="263.85" cy="409.33" r="1.94"/><circle cx="253.17" cy="407.76" r="1.81"/><circle cx="242.66" cy="405.79" r="1.68"/><circle cx="232.37" cy="403.42" r="1.54"/><circle cx="222.32" cy="400.67" r="1.4"/><circle cx="212.57" cy="397.55" r="1.27"/><circle cx="203.14" cy="394.06" r="1.14"/><circle cx="110.5" cy="333.37" r="0.76"/><circle cx="107.8" cy="326.79" r="0.86"/><circle cx="105.69" cy="320.13" r="0.98"/><circle cx="104.19" cy="313.4" r="1.1"/><circle cx="103.29" cy="306.64" r="1.22"/><circle cx="103" cy="299.85" r="1.35"/><circle cx="103.32" cy="293.06" r="1.49"/><circle cx="104.24" cy="286.29" r="1.63"/><circle cx="105.78" cy="279.57" r="1.76"/><circle cx="107.91" cy="272.91" r="1.9"/><circle cx="110.63" cy="266.33" r="2.03"/><circle cx="113.94" cy="259.86" r="2.16"/><circle cx="117.83" cy="253.51" r="2.28"/><circle cx="122.28" cy="247.3" r="2.4"/><circle cx="127.28" cy="241.26" r="2.5"/><circle cx="132.81" cy="235.4" r="2.59"/><circle cx="138.86" cy="229.74" r="2.67"/><circle cx="145.4" cy="224.3" r="2.74"/><circle cx="152.43" cy="219.09" r="2.8"/><circle cx="159.91" cy="214.13" r="2.84"/><circle cx="167.82" cy="209.43" r="2.86"/><circle cx="176.14" cy="205.02" r="2.87"/><circle cx="184.85" cy="200.9" r="2.87"/><circle cx="193.91" cy="197.08" r="2.85"/><circle cx="203.3" cy="193.59" r="2.82"/><circle cx="212.99" cy="190.42" r="2.77"/><circle cx="222.94" cy="187.59" r="2.7"/><circle cx="233.14" cy="185.11" r="2.63"/><circle cx="243.54" cy="182.98" r="2.54"/><circle cx="254.12" cy="181.22" r="2.44"/><circle cx="264.84" cy="179.82" r="2.33"/><circle cx="275.66" cy="178.8" r="2.21"/><circle cx="286.56" cy="178.14" r="2.08"/><circle cx="297.51" cy="177.87" r="1.95"/><circle cx="308.46" cy="177.97" r="1.82"/><circle cx="319.38" cy="178.45" r="1.68"/><circle cx="330.25" cy="179.31" r="1.54"/><circle cx="341.02" cy="180.54" r="1.41"/><circle cx="351.67" cy="182.14" r="1.27"/><circle cx="362.15" cy="184.1" r="1.15"/><circle cx="372.44" cy="186.42" r="1.02"/><circle cx="382.51" cy="189.09" r="0.91"/><circle cx="392.33" cy="192.1" r="0.8"/><circle cx="401.86" cy="195.45" r="0.7"/><circle cx="487.93" cy="263.37" r="0.71"/><circle cx="490.93" cy="269.9" r="0.81"/><circle cx="493.33" cy="276.53" r="0.92"/><circle cx="495.13" cy="283.23" r="1.03"/><circle cx="496.34" cy="289.98" r="1.16"/><circle cx="496.93" cy="296.76" r="1.29"/><circle cx="496.92" cy="303.55" r="1.42"/><circle cx="496.29" cy="310.33" r="1.56"/><circle cx="495.07" cy="317.08" r="1.7"/><circle cx="493.23" cy="323.77" r="1.83"/><circle cx="490.8" cy="330.39" r="1.97"/><circle cx="487.78" cy="336.92" r="2.1"/><circle cx="484.19" cy="343.33" r="2.22"/><circle cx="480.02" cy="349.61" r="2.34"/><circle cx="475.29" cy="355.74" r="2.45"/><circle cx="470.02" cy="361.69" r="2.55"/><circle cx="464.23" cy="367.45" r="2.63"/><circle cx="457.93" cy="373.01" r="2.71"/><circle cx="451.14" cy="378.34" r="2.77"/><circle cx="443.89" cy="383.42" r="2.82"/><circle cx="436.19" cy="388.25" r="2.85"/><circle cx="428.07" cy="392.81" r="2.87"/><circle cx="419.55" cy="397.08" r="2.87"/><circle cx="410.66" cy="401.05" r="2.86"/><circle cx="401.43" cy="404.71" r="2.83"/><circle cx="391.89" cy="408.04" r="2.79"/><circle cx="382.07" cy="411.04" r="2.74"/><circle cx="371.99" cy="413.69" r="2.67"/><circle cx="361.68" cy="416" r="2.58"/><circle cx="351.19" cy="417.94" r="2.49"/><circle cx="340.54" cy="419.53" r="2.38"/><circle cx="329.76" cy="420.74" r="2.27"/><circle cx="318.89" cy="421.58" r="2.15"/><circle cx="307.97" cy="422.04" r="2.02"/><circle cx="297.02" cy="422.13" r="1.89"/><circle cx="286.07" cy="421.83" r="1.75"/><circle cx="275.17" cy="421.17" r="1.61"/><circle cx="264.35" cy="420.12" r="1.48"/><circle cx="253.64" cy="418.71" r="1.34"/><circle cx="243.07" cy="416.93" r="1.21"/><circle cx="232.68" cy="414.79" r="1.08"/><circle cx="222.49" cy="412.29" r="0.96"/><circle cx="212.55" cy="409.44" r="0.85"/><circle cx="202.87" cy="406.26" r="0.75"/><circle cx="112.36" cy="363.8" r="0.89"/><circle cx="107.31" cy="357.72" r="1.01"/><circle cx="102.78" cy="351.5" r="1.13"/><circle cx="98.76" cy="345.13" r="1.25"/><circle cx="95.28" cy="338.65" r="1.38"/><circle cx="92.34" cy="332.06" r="1.52"/><circle cx="89.96" cy="325.39" r="1.66"/><circle cx="88.13" cy="318.66" r="1.8"/><circle cx="86.86" cy="311.87" r="1.94"/><circle cx="86.16" cy="305.05" r="2.07"/><circle cx="86.02" cy="298.22" r="2.2"/><circle cx="86.45" cy="291.39" r="2.33"/><circle cx="87.45" cy="284.59" r="2.46"/><circle cx="89.01" cy="277.82" r="2.57"/><circle cx="91.13" cy="271.12" r="2.68"/><circle cx="93.81" cy="264.49" r="2.77"/><circle cx="97.03" cy="257.96" r="2.86"/><circle cx="100.79" cy="251.53" r="2.93"/><circle cx="105.08" cy="245.24" r="2.99"/><circle cx="109.88" cy="239.09" r="3.04"/><circle cx="115.19" cy="233.1" r="3.07"/><circle cx="120.99" cy="227.29" r="3.09"/><circle cx="127.26" cy="221.68" r="3.1"/><circle cx="134" cy="216.27" r="3.09"/><circle cx="141.17" cy="211.08" r="3.07"/><circle cx="148.76" cy="206.13" r="3.03"/><circle cx="156.76" cy="201.43" r="2.98"/><circle cx="165.13" cy="196.99" r="2.92"/><circle cx="173.86" cy="192.82" r="2.84"/><circle cx="182.93" cy="188.93" r="2.76"/><circle cx="192.31" cy="185.34" r="2.66"/><circle cx="201.97" cy="182.06" r="2.55"/><circle cx="211.89" cy="179.09" r="2.43"/><circle cx="222.05" cy="176.44" r="2.31"/><circle cx="232.41" cy="174.11" r="2.18"/><circle cx="242.95" cy="172.12" r="2.05"/><circle cx="253.65" cy="170.47" r="1.91"/><circle cx="264.46" cy="169.16" r="1.77"/><circle cx="275.37" cy="168.2" r="1.63"/><circle cx="286.35" cy="167.59" r="1.5"/><circle cx="297.36" cy="167.33" r="1.36"/><circle cx="308.38" cy="167.42" r="1.23"/><circle cx="319.38" cy="167.87" r="1.1"/><circle cx="330.32" cy="168.66" r="0.99"/><circle cx="341.19" cy="169.8" r="0.88"/><circle cx="351.94" cy="171.29" r="0.77"/><circle cx="482.09" cy="230.3" r="0.79"/><circle cx="487.64" cy="236.2" r="0.89"/><circle cx="492.69" cy="242.28" r="1.01"/><circle cx="497.22" cy="248.5" r="1.13"/><circle cx="501.24" cy="254.87" r="1.25"/><circle cx="504.72" cy="261.35" r="1.38"/><circle cx="507.66" cy="267.94" r="1.52"/><circle cx="510.04" cy="274.61" r="1.66"/><circle cx="511.87" cy="281.34" r="1.8"/><circle cx="513.14" cy="288.13" r="1.94"/><circle cx="513.84" cy="294.95" r="2.07"/><circle cx="513.98" cy="301.78" r="2.2"/><circle cx="513.55" cy="308.61" r="2.33"/><circle cx="512.55" cy="315.41" r="2.46"/><circle cx="510.99" cy="322.18" r="2.57"/><circle cx="508.87" cy="328.88" r="2.68"/><circle cx="506.19" cy="335.51" r="2.77"/><circle cx="502.97" cy="342.04" r="2.86"/><circle cx="499.21" cy="348.47" r="2.93"/><circle cx="494.92" cy="354.76" r="2.99"/><circle cx="490.12" cy="360.91" r="3.04"/><circle cx="484.81" cy="366.9" r="3.07"/><circle cx="479.01" cy="372.71" r="3.09"/><circle cx="472.74" cy="378.32" r="3.1"/><circle cx="466" cy="383.73" r="3.09"/><circle cx="458.83" cy="388.92" r="3.07"/><circle cx="451.24" cy="393.87" r="3.03"/><circle cx="443.24" cy="398.57" r="2.98"/><circle cx="434.87" cy="403.01" r="2.92"/><circle cx="426.14" cy="407.18" r="2.84"/><circle cx="417.07" cy="411.07" r="2.76"/><circle cx="407.69" cy="414.66" r="2.66"/><circle cx="398.03" cy="417.94" r="2.55"/><circle cx="388.11" cy="420.91" r="2.43"/><circle cx="377.95" cy="423.56" r="2.31"/><circle cx="367.59" cy="425.89" r="2.18"/><circle cx="357.05" cy="427.88" r="2.05"/><circle cx="346.35" cy="429.53" r="1.91"/><circle cx="335.54" cy="430.84" r="1.77"/><circle cx="324.63" cy="431.8" r="1.63"/><circle cx="313.65" cy="432.41" r="1.5"/><circle cx="302.64" cy="432.67" r="1.36"/><circle cx="291.62" cy="432.58" r="1.23"/><circle cx="280.62" cy="432.13" r="1.1"/><circle cx="269.68" cy="431.34" r="0.99"/><circle cx="258.81" cy="430.2" r="0.88"/><circle cx="248.06" cy="428.71" r="0.77"/><circle cx="117.91" cy="369.7" r="0.79"/><circle cx="78.1" cy="339.8" r="2.3"/><circle cx="75.3" cy="333.21" r="2.43"/><circle cx="73" cy="326.54" r="2.56"/><circle cx="71.22" cy="319.81" r="2.68"/><circle cx="69.96" cy="313.04" r="2.79"/><circle cx="69.22" cy="306.24" r="2.89"/><circle cx="69" cy="299.43" r="2.98"/><circle cx="69.31" cy="292.61" r="3.07"/><circle cx="70.14" cy="285.81" r="3.14"/><circle cx="71.48" cy="279.05" r="3.2"/><circle cx="73.35" cy="272.33" r="3.25"/><circle cx="75.73" cy="265.68" r="3.29"/><circle cx="78.62" cy="259.1" r="3.31"/><circle cx="82.01" cy="252.62" r="3.32"/><circle cx="85.89" cy="246.24" r="3.32"/><circle cx="90.26" cy="239.98" r="3.31"/><circle cx="95.1" cy="233.86" r="3.28"/><circle cx="100.41" cy="227.89" r="3.24"/><circle cx="106.17" cy="222.09" r="3.18"/><circle cx="112.37" cy="216.46" r="3.12"/><circle cx="119" cy="211.02" r="3.04"/><circle cx="126.03" cy="205.78" r="2.95"/><circle cx="133.46" cy="200.75" r="2.85"/><circle cx="141.26" cy="195.95" r="2.75"/><circle cx="149.43" cy="191.39" r="2.63"/><circle cx="157.93" cy="187.07" r="2.51"/><circle cx="166.76" cy="183" r="2.38"/><circle cx="175.89" cy="179.21" r="2.25"/><circle cx="185.3" cy="175.68" r="2.11"/><circle cx="194.97" cy="172.44" r="1.98"/><circle cx="204.88" cy="169.49" r="1.84"/><circle cx="215.01" cy="166.83" r="1.7"/><circle cx="225.32" cy="164.47" r="1.56"/><circle cx="235.81" cy="162.42" r="1.43"/><circle cx="246.44" cy="160.68" r="1.29"/><circle cx="257.19" cy="159.26" r="1.17"/><circle cx="268.04" cy="158.16" r="1.05"/><circle cx="278.96" cy="157.38" r="0.94"/><circle cx="289.93" cy="156.92" r="0.83"/><circle cx="300.93" cy="156.78" r="0.74"/><circle cx="451.97" cy="192.14" r="0.77"/><circle cx="460.08" cy="196.74" r="0.87"/><circle cx="467.82" cy="201.58" r="0.98"/><circle cx="475.18" cy="206.65" r="1.09"/><circle cx="482.15" cy="211.92" r="1.22"/><circle cx="488.7" cy="217.39" r="1.34"/><circle cx="494.83" cy="223.05" r="1.48"/><circle cx="500.51" cy="228.89" r="1.61"/><circle cx="505.74" cy="234.88" r="1.75"/><circle cx="510.51" cy="241.03" r="1.89"/><circle cx="514.8" cy="247.3" r="2.03"/><circle cx="518.6" cy="253.7" r="2.17"/><circle cx="521.9" cy="260.2" r="2.3"/><circle cx="524.7" cy="266.79" r="2.43"/><circle cx="527" cy="273.46" r="2.56"/><circle cx="528.78" cy="280.19" r="2.68"/><circle cx="530.04" cy="286.96" r="2.79"/><circle cx="530.78" cy="293.76" r="2.89"/><circle cx="531" cy="300.57" r="2.98"/><circle cx="530.69" cy="307.39" r="3.07"/><circle cx="529.86" cy="314.19" r="3.14"/><circle cx="528.52" cy="320.95" r="3.2"/><circle cx="526.65" cy="327.67" r="3.25"/><circle cx="524.27" cy="334.32" r="3.29"/><circle cx="521.38" cy="340.9" r="3.31"/><circle cx="517.99" cy="347.38" r="3.32"/><circle cx="514.11" cy="353.76" r="3.32"/><circle cx="509.74" cy="360.02" r="3.31"/><circle cx="504.9" cy="366.14" r="3.28"/><circle cx="499.59" cy="372.11" r="3.24"/><circle cx="493.83" cy="377.91" r="3.18"/><circle cx="487.63" cy="383.54" r="3.12"/><circle cx="481" cy="388.98" r="3.04"/><circle cx="473.97" cy="394.22" r="2.95"/><circle cx="466.54" cy="399.25" r="2.85"/><circle cx="458.74" cy="404.05" r="2.75"/><circle cx="450.57" cy="408.61" r="2.63"/><circle cx="442.07" cy="412.93" r="2.51"/><circle cx="433.24" cy="417" r="2.38"/><circle cx="424.11" cy="420.79" r="2.25"/><circle cx="414.7" cy="424.32" r="2.11"/><circle cx="405.03" cy="427.56" r="1.98"/><circle cx="395.12" cy="430.51" r="1.84"/><circle cx="384.99" cy="433.17" r="1.7"/><circle cx="374.68" cy="435.53" r="1.56"/><circle cx="364.19" cy="437.58" r="1.43"/><circle cx="353.56" cy="439.32" r="1.29"/><circle cx="342.81" cy="440.74" r="1.17"/><circle cx="331.96" cy="441.84" r="1.05"/><circle cx="321.04" cy="442.62" r="0.94"/><circle cx="310.07" cy="443.08" r="0.83"/><circle cx="299.07" cy="443.22" r="0.74"/><circle cx="148.03" cy="407.86" r="0.77"/><circle cx="139.92" cy="403.26" r="0.87"/><circle cx="132.18" cy="398.42" r="0.98"/><circle cx="124.82" cy="393.35" r="1.09"/><circle cx="117.85" cy="388.08" r="1.22"/><circle cx="111.3" cy="382.61" r="1.34"/><circle cx="105.17" cy="376.95" r="1.48"/><circle cx="99.49" cy="371.11" r="1.61"/><circle cx="94.26" cy="365.12" r="1.75"/><circle cx="89.49" cy="358.97" r="1.89"/><circle cx="85.2" cy="352.7" r="2.03"/><circle cx="81.4" cy="346.3" r="2.17"/><circle cx="52.47" cy="309.46" r="3.49"/><circle cx="52.04" cy="302.67" r="3.52"/><circle cx="52.09" cy="295.86" r="3.54"/><circle cx="52.63" cy="289.07" r="3.55"/><circle cx="53.65" cy="282.3" r="3.55"/><circle cx="55.15" cy="275.56" r="3.53"/><circle cx="57.14" cy="268.87" r="3.5"/><circle cx="59.6" cy="262.24" r="3.46"/><circle cx="62.53" cy="255.68" r="3.41"/><circle cx="65.92" cy="249.21" r="3.34"/><circle cx="69.77" cy="242.84" r="3.27"/><circle cx="74.08" cy="236.58" r="3.18"/><circle cx="78.82" cy="230.45" r="3.09"/><circle cx="84" cy="224.45" r="2.99"/><circle cx="89.6" cy="218.6" r="2.88"/><circle cx="95.61" cy="212.91" r="2.76"/><circle cx="102.03" cy="207.39" r="2.63"/><circle cx="108.83" cy="202.05" r="2.51"/><circle cx="116" cy="196.91" r="2.37"/><circle cx="123.54" cy="191.96" r="2.24"/><circle cx="131.42" cy="187.23" r="2.1"/><circle cx="139.63" cy="182.71" r="1.96"/><circle cx="148.16" cy="178.43" r="1.82"/><circle cx="156.98" cy="174.39" r="1.68"/><circle cx="166.08" cy="170.59" r="1.55"/><circle cx="175.44" cy="167.04" r="1.41"/><circle cx="185.05" cy="163.75" r="1.29"/><circle cx="194.88" cy="160.74" r="1.16"/><circle cx="204.92" cy="157.99" r="1.05"/><circle cx="215.15" cy="155.52" r="0.94"/><circle cx="225.54" cy="153.33" r="0.84"/><circle cx="236.07" cy="151.44" r="0.75"/><circle cx="397.26" cy="158.56" r="0.72"/><circle cx="407.26" cy="161.36" r="0.81"/><circle cx="417.04" cy="164.44" r="0.91"/><circle cx="426.6" cy="167.78" r="1.02"/><circle cx="435.91" cy="171.39" r="1.13"/><circle cx="444.95" cy="175.24" r="1.25"/><circle cx="453.71" cy="179.34" r="1.38"/><circle cx="462.17" cy="183.67" r="1.51"/><circle cx="470.31" cy="188.23" r="1.65"/><circle cx="478.12" cy="193.01" r="1.78"/><circle cx="485.58" cy="198" r="1.92"/><circle cx="492.67" cy="203.19" r="2.06"/><circle cx="499.39" cy="208.57" r="2.2"/><circle cx="505.72" cy="214.13" r="2.34"/><circle cx="511.64" cy="219.85" r="2.47"/><circle cx="517.15" cy="225.73" r="2.6"/><circle cx="522.24" cy="231.76" r="2.73"/><circle cx="526.89" cy="237.92" r="2.85"/><circle cx="531.1" cy="244.21" r="2.96"/><circle cx="534.85" cy="250.6" r="3.06"/><circle cx="538.15" cy="257.09" r="3.16"/><circle cx="540.98" cy="263.66" r="3.25"/><circle cx="543.33" cy="270.31" r="3.32"/><circle cx="545.21" cy="277.01" r="3.39"/><circle cx="546.61" cy="283.76" r="3.45"/><circle cx="547.53" cy="290.54" r="3.49"/><circle cx="547.96" cy="297.33" r="3.52"/><circle cx="547.91" cy="304.14" r="3.54"/><circle cx="547.37" cy="310.93" r="3.55"/><circle cx="546.35" cy="317.7" r="3.55"/><circle cx="544.85" cy="324.44" r="3.53"/><circle cx="542.86" cy="331.13" r="3.5"/><circle cx="540.4" cy="337.76" r="3.46"/><circle cx="537.47" cy="344.32" r="3.41"/><circle cx="534.08" cy="350.79" r="3.34"/><circle cx="530.23" cy="357.16" r="3.27"/><circle cx="525.92" cy="363.42" r="3.18"/><circle cx="521.18" cy="369.55" r="3.09"/><circle cx="516" cy="375.55" r="2.99"/><circle cx="510.4" cy="381.4" r="2.88"/><circle cx="504.39" cy="387.09" r="2.76"/><circle cx="497.97" cy="392.61" r="2.63"/><circle cx="491.17" cy="397.95" r="2.51"/><circle cx="484" cy="403.09" r="2.37"/><circle cx="476.46" cy="408.04" r="2.24"/><circle cx="468.58" cy="412.77" r="2.1"/><circle cx="460.37" cy="417.29" r="1.96"/><circle cx="451.84" cy="421.57" r="1.82"/><circle cx="443.02" cy="425.61" r="1.68"/><circle cx="433.92" cy="429.41" r="1.55"/><circle cx="424.56" cy="432.96" r="1.41"/><circle cx="414.95" cy="436.25" r="1.29"/><circle cx="405.12" cy="439.26" r="1.16"/><circle cx="395.08" cy="442.01" r="1.05"/><circle cx="384.85" cy="444.48" r="0.94"/><circle cx="374.46" cy="446.67" r="0.84"/><circle cx="363.93" cy="448.56" r="0.75"/><circle cx="202.74" cy="441.44" r="0.72"/><circle cx="192.74" cy="438.64" r="0.81"/><circle cx="182.96" cy="435.56" r="0.91"/><circle cx="173.4" cy="432.22" r="1.02"/><circle cx="164.09" cy="428.61" r="1.13"/><circle cx="155.05" cy="424.76" r="1.25"/><circle cx="146.29" cy="420.66" r="1.38"/><circle cx="137.83" cy="416.33" r="1.51"/><circle cx="129.69" cy="411.77" r="1.65"/><circle cx="121.88" cy="406.99" r="1.78"/><circle cx="114.42" cy="402" r="1.92"/><circle cx="107.33" cy="396.81" r="2.06"/><circle cx="100.61" cy="391.43" r="2.2"/><circle cx="94.28" cy="385.87" r="2.34"/><circle cx="88.36" cy="380.15" r="2.47"/><circle cx="82.85" cy="374.27" r="2.6"/><circle cx="77.76" cy="368.24" r="2.73"/><circle cx="73.11" cy="362.08" r="2.85"/><circle cx="68.9" cy="355.79" r="2.96"/><circle cx="65.15" cy="349.4" r="3.06"/><circle cx="61.85" cy="342.91" r="3.16"/><circle cx="59.02" cy="336.34" r="3.25"/><circle cx="56.67" cy="329.69" r="3.32"/><circle cx="54.79" cy="322.99" r="3.39"/><circle cx="53.39" cy="316.24" r="3.45"/><circle cx="38.32" cy="274.08" r="3.36"/><circle cx="40.28" cy="267.36" r="3.27"/><circle cx="42.7" cy="260.69" r="3.16"/><circle cx="45.56" cy="254.08" r="3.05"/><circle cx="48.86" cy="247.56" r="2.93"/><circle cx="52.6" cy="241.13" r="2.81"/><circle cx="56.76" cy="234.8" r="2.68"/><circle cx="61.34" cy="228.58" r="2.55"/><circle cx="66.34" cy="222.49" r="2.41"/><circle cx="71.75" cy="216.53" r="2.27"/><circle cx="77.54" cy="210.72" r="2.13"/><circle cx="83.73" cy="205.06" r="1.99"/><circle cx="90.28" cy="199.56" r="1.85"/><circle cx="97.2" cy="194.24" r="1.71"/><circle cx="104.48" cy="189.1" r="1.58"/><circle cx="112.09" cy="184.15" r="1.45"/><circle cx="120.02" cy="179.41" r="1.32"/><circle cx="128.27" cy="174.87" r="1.2"/><circle cx="136.81" cy="170.55" r="1.08"/><circle cx="145.64" cy="166.45" r="0.97"/><circle cx="154.73" cy="162.59" r="0.87"/><circle cx="164.08" cy="158.96" r="0.78"/><circle cx="333.62" cy="137.03" r="0.74"/><circle cx="344.52" cy="138.04" r="0.83"/><circle cx="355.35" cy="139.32" r="0.93"/><circle cx="366.08" cy="140.89" r="1.04"/><circle cx="376.7" cy="142.73" r="1.15"/><circle cx="387.19" cy="144.85" r="1.27"/><circle cx="397.52" cy="147.23" r="1.4"/><circle cx="407.69" cy="149.88" r="1.53"/><circle cx="417.67" cy="152.78" r="1.66"/><circle cx="427.44" cy="155.95" r="1.8"/><circle cx="437" cy="159.36" r="1.94"/><circle cx="446.31" cy="163.01" r="2.08"/><circle cx="455.38" cy="166.91" r="2.22"/><circle cx="464.17" cy="171.03" r="2.36"/><circle cx="472.68" cy="175.37" r="2.5"/><circle cx="480.9" cy="179.94" r="2.63"/><circle cx="488.8" cy="184.71" r="2.76"/><circle cx="496.37" cy="189.67" r="2.89"/><circle cx="503.6" cy="194.83" r="3.01"/><circle cx="510.48" cy="200.18" r="3.12"/><circle cx="517" cy="205.69" r="3.23"/><circle cx="523.14" cy="211.37" r="3.33"/><circle cx="528.89" cy="217.2" r="3.42"/><circle cx="534.25" cy="223.18" r="3.5"/><circle cx="539.2" cy="229.28" r="3.57"/><circle cx="543.74" cy="235.51" r="3.63"/><circle cx="547.85" cy="241.86" r="3.69"/><circle cx="551.54" cy="248.3" r="3.72"/><circle cx="554.79" cy="254.83" r="3.75"/><circle cx="557.6" cy="261.44" r="3.77"/><circle cx="559.96" cy="268.12" r="3.77"/><circle cx="561.88" cy="274.85" r="3.77"/><circle cx="563.34" cy="281.63" r="3.75"/><circle cx="564.34" cy="288.43" r="3.72"/><circle cx="564.89" cy="295.26" r="3.68"/><circle cx="564.98" cy="302.1" r="3.63"/><circle cx="564.61" cy="308.93" r="3.56"/><circle cx="563.78" cy="315.75" r="3.49"/><circle cx="562.5" cy="322.54" r="3.41"/><circle cx="560.76" cy="329.29" r="3.32"/><circle cx="558.57" cy="335.99" r="3.22"/><circle cx="555.93" cy="342.62" r="3.11"/><circle cx="552.85" cy="349.19" r="2.99"/><circle cx="549.33" cy="355.67" r="2.87"/><circle cx="545.38" cy="362.05" r="2.75"/><circle cx="541" cy="368.32" r="2.61"/><circle cx="536.21" cy="374.48" r="2.48"/><circle cx="531.01" cy="380.51" r="2.34"/><circle cx="525.4" cy="386.4" r="2.2"/><circle cx="519.41" cy="392.13" r="2.06"/><circle cx="513.04" cy="397.71" r="1.92"/><circle cx="506.3" cy="403.12" r="1.78"/><circle cx="499.2" cy="408.36" r="1.64"/><circle cx="491.76" cy="413.4" r="1.51"/><circle cx="483.99" cy="418.25" r="1.38"/><circle cx="475.89" cy="422.89" r="1.26"/><circle cx="467.5" cy="427.32" r="1.14"/><circle cx="458.81" cy="431.53" r="1.02"/><circle cx="449.85" cy="435.51" r="0.92"/><circle cx="440.62" cy="439.26" r="0.82"/><circle cx="431.16" cy="442.76" r="0.73"/><circle cx="271.86" cy="463.37" r="0.7"/><circle cx="260.92" cy="462.5" r="0.79"/><circle cx="250.05" cy="461.36" r="0.88"/><circle cx="239.27" cy="459.93" r="0.98"/><circle cx="228.59" cy="458.22" r="1.09"/><circle cx="218.04" cy="456.24" r="1.21"/><circle cx="207.63" cy="453.99" r="1.33"/><circle cx="197.37" cy="451.48" r="1.46"/><circle cx="187.3" cy="448.7" r="1.59"/><circle cx="177.42" cy="445.67" r="1.73"/><circle cx="167.75" cy="442.38" r="1.87"/><circle cx="158.31" cy="438.84" r="2.01"/><circle cx="149.12" cy="435.07" r="2.15"/><circle cx="140.19" cy="431.06" r="2.29"/><circle cx="131.53" cy="426.83" r="2.43"/><circle cx="123.17" cy="422.37" r="2.56"/><circle cx="115.11" cy="417.71" r="2.7"/><circle cx="107.38" cy="412.83" r="2.83"/><circle cx="99.97" cy="407.77" r="2.95"/><circle cx="92.91" cy="402.52" r="3.07"/><circle cx="86.22" cy="397.09" r="3.18"/><circle cx="79.89" cy="391.49" r="3.28"/><circle cx="73.94" cy="385.73" r="3.38"/><circle cx="68.38" cy="379.83" r="3.46"/><circle cx="63.23" cy="373.79" r="3.54"/><circle cx="58.48" cy="367.62" r="3.61"/><circle cx="54.15" cy="361.33" r="3.66"/><circle cx="50.25" cy="354.93" r="3.71"/><circle cx="46.78" cy="348.45" r="3.74"/><circle cx="43.75" cy="341.87" r="3.76"/><circle cx="41.16" cy="335.23" r="3.77"/><circle cx="39.02" cy="328.52" r="3.77"/><circle cx="37.34" cy="321.77" r="3.76"/><circle cx="36.1" cy="314.97" r="3.74"/><circle cx="35.33" cy="308.15" r="3.7"/><circle cx="35.01" cy="301.32" r="3.65"/><circle cx="35.15" cy="294.48" r="3.6"/><circle cx="35.75" cy="287.66" r="3.53"/><circle cx="36.81" cy="280.85" r="3.45"/><circle cx="37.95" cy="235.41" r="1.96"/><circle cx="42.21" cy="229.12" r="1.82"/><circle cx="46.87" cy="222.94" r="1.69"/><circle cx="51.91" cy="216.87" r="1.56"/><circle cx="57.33" cy="210.93" r="1.43"/><circle cx="63.12" cy="205.13" r="1.3"/><circle cx="69.27" cy="199.47" r="1.18"/><circle cx="75.78" cy="193.97" r="1.07"/><circle cx="82.62" cy="188.62" r="0.96"/><circle cx="89.79" cy="183.45" r="0.87"/><circle cx="97.29" cy="178.46" r="0.78"/><circle cx="250.15" cy="127.91" r="0.7"/><circle cx="261.02" cy="126.84" r="0.79"/><circle cx="271.94" cy="126.03" r="0.88"/><circle cx="282.91" cy="125.48" r="0.98"/><circle cx="293.91" cy="125.2" r="1.09"/><circle cx="304.91" cy="125.19" r="1.2"/><circle cx="315.91" cy="125.44" r="1.32"/><circle cx="326.88" cy="125.96" r="1.44"/><circle cx="337.81" cy="126.74" r="1.57"/><circle cx="348.69" cy="127.79" r="1.71"/><circle cx="359.49" cy="129.09" r="1.84"/><circle cx="370.2" cy="130.66" r="1.98"/><circle cx="380.8" cy="132.49" r="2.12"/><circle cx="391.28" cy="134.57" r="2.26"/><circle cx="401.62" cy="136.91" r="2.4"/><circle cx="411.81" cy="139.49" r="2.54"/><circle cx="421.82" cy="142.32" r="2.68"/><circle cx="431.65" cy="145.38" r="2.81"/><circle cx="441.28" cy="148.69" r="2.94"/><circle cx="450.7" cy="152.22" r="3.07"/><circle cx="459.88" cy="155.98" r="3.19"/><circle cx="468.82" cy="159.95" r="3.3"/><circle cx="477.51" cy="164.14" r="3.41"/><circle cx="485.92" cy="168.54" r="3.51"/><circle cx="494.05" cy="173.14" r="3.6"/><circle cx="501.89" cy="177.93" r="3.69"/><circle cx="509.42" cy="182.91" r="3.76"/><circle cx="516.63" cy="188.06" r="3.83"/><circle cx="523.51" cy="193.39" r="3.88"/><circle cx="530.04" cy="198.87" r="3.93"/><circle cx="536.23" cy="204.52" r="3.96"/><circle cx="542.06" cy="210.3" r="3.98"/><circle cx="547.52" cy="216.23" r="4"/><circle cx="552.61" cy="222.28" r="4"/><circle cx="557.3" cy="228.45" r="3.99"/><circle cx="561.61" cy="234.73" r="3.97"/><circle cx="565.52" cy="241.1" r="3.94"/><circle cx="569.02" cy="247.57" r="3.9"/><circle cx="572.12" cy="254.12" r="3.85"/><circle cx="574.8" cy="260.74" r="3.79"/><circle cx="577.06" cy="267.41" r="3.71"/><circle cx="578.9" cy="274.14" r="3.63"/><circle cx="580.31" cy="280.91" r="3.54"/><circle cx="581.3" cy="287.7" r="3.45"/><circle cx="581.86" cy="294.52" r="3.34"/><circle cx="581.99" cy="301.34" r="3.23"/><circle cx="581.69" cy="308.16" r="3.11"/><circle cx="580.96" cy="314.97" r="2.99"/><circle cx="579.81" cy="321.75" r="2.86"/><circle cx="578.23" cy="328.5" r="2.73"/><circle cx="576.22" cy="335.21" r="2.59"/><circle cx="573.8" cy="341.87" r="2.45"/><circle cx="570.95" cy="348.46" r="2.31"/><circle cx="567.7" cy="354.98" r="2.17"/><circle cx="564.03" cy="361.41" r="2.03"/><circle cx="559.97" cy="367.75" r="1.89"/><circle cx="555.51" cy="373.99" r="1.76"/><circle cx="550.66" cy="380.11" r="1.62"/><circle cx="545.42" cy="386.11" r="1.49"/><circle cx="539.82" cy="391.99" r="1.36"/><circle cx="533.85" cy="397.72" r="1.24"/><circle cx="527.52" cy="403.3" r="1.13"/><circle cx="520.84" cy="408.72" r="1.02"/><circle cx="513.83" cy="413.98" r="0.91"/><circle cx="506.5" cy="419.07" r="0.82"/><circle cx="498.85" cy="423.97" r="0.73"/><circle cx="344.43" cy="472.66" r="0.75"/><circle cx="333.53" cy="473.6" r="0.83"/><circle cx="322.58" cy="474.28" r="0.93"/><circle cx="311.59" cy="474.69" r="1.03"/><circle cx="300.59" cy="474.84" r="1.14"/><circle cx="289.59" cy="474.72" r="1.26"/><circle cx="278.6" cy="474.34" r="1.38"/><circle cx="267.65" cy="473.69" r="1.51"/><circle cx="256.74" cy="472.77" r="1.64"/><circle cx="245.9" cy="471.59" r="1.77"/><circle cx="235.14" cy="470.15" r="1.91"/><circle cx="224.49" cy="468.45" r="2.05"/><circle cx="213.94" cy="466.5" r="2.19"/><circle cx="203.53" cy="464.29" r="2.33"/><circle cx="193.27" cy="461.83" r="2.47"/><circle cx="183.16" cy="459.13" r="2.61"/><circle cx="173.24" cy="456.18" r="2.75"/><circle cx="163.51" cy="453" r="2.88"/><circle cx="153.98" cy="449.58" r="3.01"/><circle cx="144.68" cy="445.93" r="3.13"/><circle cx="135.62" cy="442.06" r="3.25"/><circle cx="126.8" cy="437.98" r="3.36"/><circle cx="118.25" cy="433.68" r="3.46"/><circle cx="109.98" cy="429.18" r="3.56"/><circle cx="101.99" cy="424.49" r="3.65"/><circle cx="94.31" cy="419.61" r="3.72"/><circle cx="86.94" cy="414.54" r="3.79"/><circle cx="79.89" cy="409.3" r="3.85"/><circle cx="73.18" cy="403.89" r="3.9"/><circle cx="66.82" cy="398.32" r="3.94"/><circle cx="60.81" cy="392.61" r="3.97"/><circle cx="55.16" cy="386.75" r="3.99"/><circle cx="49.89" cy="380.76" r="4"/><circle cx="45" cy="374.65" r="4"/><circle cx="40.49" cy="368.43" r="3.98"/><circle cx="36.38" cy="362.1" r="3.96"/><circle cx="32.68" cy="355.67" r="3.92"/><circle cx="29.38" cy="349.16" r="3.87"/><circle cx="26.49" cy="342.58" r="3.82"/><circle cx="24.02" cy="335.93" r="3.75"/><circle cx="21.97" cy="329.23" r="3.68"/><circle cx="20.34" cy="322.48" r="3.59"/><circle cx="19.14" cy="315.7" r="3.5"/><circle cx="18.36" cy="308.89" r="3.4"/><circle cx="18.02" cy="302.07" r="3.29"/><circle cx="18.1" cy="295.25" r="3.17"/><circle cx="18.62" cy="288.43" r="3.05"/><circle cx="19.56" cy="281.64" r="2.92"/><circle cx="20.93" cy="274.87" r="2.79"/><circle cx="22.72" cy="268.13" r="2.66"/><circle cx="24.94" cy="261.45" r="2.52"/><circle cx="27.57" cy="254.83" r="2.38"/><circle cx="30.62" cy="248.27" r="2.24"/><circle cx="34.09" cy="241.8" r="2.1"/></g></svg>